<?xml version="1.0" standalone="no"?>
<!DOCTYPE svg PUBLIC "-//W3C//DTD SVG 20010904//EN"
 "http://www.w3.org/TR/2001/REC-SVG-20010904/DTD/svg10.dtd">
<svg version="1.0" xmlns="http://www.w3.org/2000/svg"
 width="2338.000000pt" height="2338.000000pt" viewBox="0 0 2338.000000 2338.000000"
 preserveAspectRatio="xMidYMid meet">
<metadata>
Created by potrace 1.11, written by Peter Selinger 2001-2013
</metadata>
<g transform="translate(0.000000,2338.000000) scale(0.100000,-0.100000)"
fill="#000000" stroke="none">
<path d="M0 11690 l0 -11690 11690 0 11690 0 0 11690 0 11690 -11690 0 -11690
0 0 -11690z m22870 0 l0 -11170 -11180 0 -11180 0 0 11170 0 11170 11180 0
11180 0 0 -11170z"/>
<path d="M7980 4370 l0 -3420 493 2 492 3 3 781 2 780 355 354 355 353 28 -39
c15 -22 365 -523 777 -1114 411 -591 757 -1085 768 -1097 l20 -23 604 0 c332
0 603 2 603 4 0 3 -465 656 -1033 1453 -568 796 -1042 1462 -1055 1479 l-22
31 887 869 c487 478 947 928 1022 1001 l136 132 -701 1 -701 0 -1019 -1048
-1019 -1047 -3 1982 -2 1983 -495 0 -495 0 0 -3420z"/>
<path d="M21410 6610 c0 -649 -3 -1180 -6 -1180 -4 0 -36 28 -72 62 -471 440
-1204 605 -1992 447 -692 -138 -1270 -593 -1595 -1254 -118 -240 -189 -462
-234 -725 -46 -267 -52 -675 -16 -939 80 -582 328 -1097 715 -1482 360 -359
786 -565 1320 -641 125 -17 571 -17 700 1 425 58 794 213 1065 449 42 37 86
73 96 81 18 13 19 6 19 -233 l0 -246 493 2 492 3 3 3418 2 3417 -495 0 -495 0
0 -1180z m-1264 -1551 c442 -42 776 -243 1021 -612 183 -277 273 -607 273
-1007 0 -533 -154 -936 -480 -1260 -162 -160 -398 -285 -630 -334 -263 -55
-632 -40 -855 36 -411 141 -718 436 -888 856 -144 354 -163 870 -46 1267 86
295 266 568 494 752 301 241 679 344 1111 302z"/>
<path d="M14650 5994 c-426 -38 -717 -119 -1025 -288 -467 -255 -856 -708
-1061 -1233 -157 -401 -218 -921 -164 -1403 29 -255 122 -595 224 -814 63
-134 168 -310 261 -435 92 -122 298 -338 410 -428 471 -380 1052 -549 1730
-504 265 18 446 51 665 123 630 206 1132 661 1389 1260 43 100 151 414 151
439 0 6 -202 8 -525 7 l-526 -3 -43 -101 c-114 -269 -266 -457 -493 -608 -227
-151 -439 -204 -768 -193 -475 17 -845 187 -1118 515 -279 335 -405 751 -376
1242 24 401 154 723 409 1015 269 308 620 462 1095 482 247 10 440 -27 630
-122 132 -65 221 -130 336 -246 133 -133 222 -276 319 -516 l10 -23 525 0
c289 0 525 3 525 7 0 18 -86 278 -122 368 -322 812 -1048 1347 -1958 1444
-107 11 -431 21 -500 15z"/>
</g>
</svg>
