<svg xmlns="http://www.w3.org/2000/svg" width="27" height="26" viewBox="0 0 27 26">
  <g fill="none" fill-rule="evenodd" transform="translate(.5)">
    <rect width="26" height="26" fill="#FFE538" rx="3"/>
    <path fill="#323330" fill-rule="nonzero" d="M12.0321691,14.3469799 C12.0321691,14.6852367 11.9943323,15.0395954 11.9186581,15.4100671 C11.8429836,15.7805388 11.7035855,16.1208038 11.5004596,16.4308725 C11.2973334,16.7409412 11.0145544,16.9966433 10.652114,17.1979866 C10.2896733,17.3993299 9.82169386,17.5 9.24816176,17.5 C8.53124642,17.5 7.93382592,17.3127535 7.45588235,16.938255 C6.97793879,16.5637566 6.65931452,16.0825532 6.5,15.4946309 L8.30422794,14.8785235 C8.35998784,15.1040279 8.46154945,15.2852341 8.60891544,15.4221477 C8.75628143,15.5590612 8.93749881,15.6275168 9.15257353,15.6275168 C9.48713385,15.6275168 9.70817955,15.5107394 9.81571691,15.2771812 C9.92325427,15.0436231 9.97702206,14.7375859 9.97702206,14.3590604 L9.97702206,8.71744966 L12.0321691,8.71744966 L12.0321691,14.3469799 Z M18.1976103,10.9402685 C18.0223642,10.7147641 17.793353,10.5355711 17.5105699,10.4026846 C17.2277864,10.2697981 16.9549644,10.2033557 16.6920956,10.2033557 C16.5566781,10.2033557 16.4192715,10.2154362 16.2798713,10.2395973 C16.1404711,10.2637584 16.0150128,10.3100667 15.9034926,10.3785235 C15.7919725,10.4469803 15.6983764,10.5355699 15.6227022,10.6442953 C15.5470277,10.7530207 15.5091912,10.8919454 15.5091912,11.0610738 C15.5091912,11.2060409 15.5390622,11.326845 15.5988051,11.4234899 C15.6585481,11.5201348 15.7461696,11.6046977 15.8616728,11.6771812 C15.9771756,11.7496647 16.1145825,11.8161071 16.2738971,11.8765101 C16.4332116,11.9369131 16.6124377,11.9993287 16.8115809,12.0637584 C17.0983471,12.1604033 17.3970573,12.2671134 17.7077206,12.3838926 C18.0183838,12.5006718 18.3011628,12.6557038 18.5560662,12.8489933 C18.8109692,13.0422828 19.0220579,13.2818779 19.1893382,13.5677852 C19.3566185,13.8536926 19.4402574,14.2100651 19.4402574,14.6369128 C19.4402574,15.1281904 19.3506443,15.5530182 19.1714154,15.9114094 C18.9921866,16.2698006 18.7512269,16.5657707 18.4485294,16.7993289 C18.1458316,17.032887 17.7993279,17.2060398 17.4090074,17.3187919 C17.0186868,17.4315441 16.6164235,17.4879195 16.2022059,17.4879195 C15.5968106,17.4879195 15.0113387,17.3812091 14.4457721,17.1677852 C13.8802054,16.9543614 13.4102345,16.6503375 13.0358456,16.2557047 L14.3740809,14.8785235 C14.5811898,15.136243 14.8540118,15.351677 15.1925551,15.5248322 C15.5310985,15.6979874 15.8676453,15.7845638 16.2022059,15.7845638 C16.3535546,15.7845638 16.5009182,15.7684565 16.6443015,15.7362416 C16.7876844,15.7040267 16.9131428,15.6516782 17.0206801,15.5791946 C17.1282175,15.5067111 17.2138475,15.4100677 17.2775735,15.2892617 C17.3412992,15.1684558 17.3731618,15.0234908 17.3731618,14.8543624 C17.3731618,14.6932878 17.3333337,14.5563763 17.2536765,14.4436242 C17.1740192,14.330872 17.0605094,14.2281883 16.9131434,14.1355705 C16.7657774,14.0429526 16.5825685,13.9583898 16.363511,13.8818792 C16.1444536,13.8053686 15.8955284,13.7228193 15.6167279,13.6342282 C15.3458933,13.5456371 15.0810368,13.4409402 14.8221507,13.3201342 C14.5632646,13.1993283 14.3322619,13.0442963 14.129136,12.8550336 C13.9260098,12.6657708 13.762715,12.436243 13.6392463,12.166443 C13.5157774,11.8966429 13.4540441,11.5684582 13.4540441,11.1818792 C13.4540441,10.7067091 13.5496315,10.3000018 13.7408088,9.96174497 C13.9319862,9.62348812 14.1829029,9.34563879 14.4935662,9.12818792 C14.8042294,8.91073705 15.1547162,8.75167836 15.5450368,8.65100671 C15.9353573,8.55033507 16.3296549,8.5 16.7279412,8.5 C17.2058847,8.5 17.6937781,8.5885896 18.191636,8.76577181 C18.6894939,8.94295403 19.1256108,9.20469638 19.5,9.55100671 L18.1976103,10.9402685 Z"/>
  </g>
</svg>
