<svg xmlns="http://www.w3.org/2000/svg" width="13" height="17" viewBox="0 0 13 17">
  <g fill="#9295AC" fill-rule="evenodd">
    <path d="M6.63673314,14.8536663 C7.25644926,14.1851623 7.87649535,13.4465083 8.45330873,12.6619653 C9.72518919,10.9320387 10.5961995,9.23827792 10.8913202,7.71571339 C10.9634952,7.34335347 11,6.9855207 11,6.64321271 C11,4.07883714 8.98528137,2 6.5,2 C4.01471863,2 2,4.07883714 2,6.64321271 C2,6.9855207 2.03650484,7.34335347 2.10867985,7.71571339 C2.40380053,9.23827792 3.27481081,10.9320387 4.54669127,12.6619653 C5.12350465,13.4465083 5.74355074,14.1851623 6.36326686,14.8536663 C6.40959581,14.9036426 6.45519128,14.9524299 6.5,15 C6.54480872,14.9524299 6.59040419,14.9036426 6.63673314,14.8536663 Z M13,6.5 C13,6.96783675 12.949728,7.44542094 12.8524815,7.93165333 C12.4874782,9.75666977 11.4850381,11.6458839 10.0466913,13.5418865 C9.42037965,14.3674791 8.75136324,15.1398889 8.08201686,15.8396601 C7.84723886,16.0851099 7.62868518,16.3044277 7.43167181,16.4950446 C7.3112287,16.6115772 7.2231193,16.6940796 7.17267279,16.7399401 C6.79125157,17.0866866 6.20874843,17.0866866 5.82732721,16.7399401 C5.7768807,16.6940796 5.6887713,16.6115772 5.56832819,16.4950446 C5.37131482,16.3044277 5.15276114,16.0851099 4.91798314,15.8396601 C4.24863676,15.1398889 3.57962035,14.3674791 2.95330873,13.5418865 C1.51496192,11.6458839 0.512521788,9.75666977 0.147518498,7.93165333 C0.05027202,7.44542094 0,6.96783675 0,6.5 C0,2.91014913 2.91014913,6.66133815e-16 6.5,0 C10.0898509,-6.66133815e-16 13,2.91014913 13,6.5 Z"/>
    <circle cx="6.5" cy="6.75" r="1.75"/>
  </g>
</svg>
