<svg xmlns="http://www.w3.org/2000/svg" width="68" height="68" viewBox="0 0 68 68">
  <g fill="none" fill-rule="evenodd">
    <rect width="2" height="2" y="66" fill="#C31B54"/>
    <rect width="2" height="2" x="66" fill="#C31B54"/>
    <polygon fill="#FF236E" points="38 0 68 0 0 68 0 38.281"/>
    <path fill="#FFF" fill-rule="nonzero" d="M2.66796875,29.2853935 L2.66796875,30.5060967 L-2,30.5060967 L-2,23.4601982 L2.66796875,23.4601982 L2.66796875,24.6760185 L-0.525390625,24.6760185 L-0.525390625,26.3752373 L2.48730469,26.3752373 L2.48730469,27.5080498 L-0.525390625,27.5080498 L-0.525390625,29.2853935 L2.66796875,29.2853935 Z M8.34667969,30.5060967 L7.80957031,28.7971123 L5.33398438,28.7971123 L4.796875,30.5060967 L3.28320312,30.5060967 L5.72949219,23.4601982 L7.46289062,23.4601982 L9.9140625,30.5060967 L8.34667969,30.5060967 Z M6.5546875,24.8078545 L5.65136719,27.6935967 L7.4921875,27.6935967 L6.58886719,24.8078545 L6.5546875,24.8078545 Z M12.1064453,24.612542 L12.1064453,26.8586357 L13.3759766,26.8586357 C14.1181641,26.8586357 14.5527344,26.433831 14.5527344,25.7355888 C14.5527344,25.0519951 14.09375,24.612542 13.3613281,24.612542 L12.1064453,24.612542 Z M12.1064453,27.9279717 L12.1064453,30.5060967 L10.6318359,30.5060967 L10.6318359,23.4601982 L13.5175781,23.4601982 C15.1386719,23.4601982 16.0664062,24.3146904 16.0664062,25.706292 C16.0664062,26.6096123 15.5976562,27.3908623 14.7871094,27.7082451 L16.2714844,30.5060967 L14.6015625,30.5060967 L13.2880859,27.9279717 L12.1064453,27.9279717 Z M21.5888672,29.2853935 L21.5888672,30.5060967 L17.0332031,30.5060967 L17.0332031,23.4601982 L18.5078125,23.4601982 L18.5078125,29.2853935 L21.5888672,29.2853935 Z M25.9394531,30.5060967 L24.4648438,30.5060967 L24.4648438,27.8742607 L22.0136719,23.4601982 L23.6201172,23.4601982 L25.1972656,26.4680107 L25.2314453,26.4680107 L26.8134766,23.4601982 L28.3955078,23.4601982 L25.9394531,27.8742607 L25.9394531,30.5060967 Z M32.3408203,28.2648857 L29.1328125,28.2648857 L29.1328125,27.0197685 L32.3408203,27.0197685 L32.3408203,28.2648857 Z M36.6523438,30.5060967 L33.5322266,30.5060967 L33.5322266,23.4601982 L36.5986328,23.4601982 C37.921875,23.4601982 38.7519531,24.1389092 38.7519531,25.2180107 C38.7519531,25.9894951 38.1757812,26.6340263 37.4287109,26.746331 L37.4287109,26.7853935 C38.3857422,26.8586357 39.0888672,27.5568779 39.0888672,28.4894951 C39.0888672,29.7297295 38.15625,30.5060967 36.6523438,30.5060967 Z M35.0068359,24.558831 L35.0068359,26.3898857 L36.0664062,26.3898857 C36.8525391,26.3898857 37.3017578,26.043206 37.3017578,25.4475029 C37.3017578,24.8810967 36.90625,24.558831 36.2177734,24.558831 L35.0068359,24.558831 Z M35.0068359,29.4074638 L36.2763672,29.4074638 C37.1259766,29.4074638 37.5849609,29.0461357 37.5849609,28.3723076 C37.5849609,27.7131279 37.1113281,27.3615654 36.2421875,27.3615654 L35.0068359,27.3615654 L35.0068359,29.4074638 Z M41.4033203,30.5060967 L39.9287109,30.5060967 L39.9287109,23.4601982 L41.4033203,23.4601982 L41.4033203,30.5060967 Z M44.0498047,24.612542 L44.0498047,26.8586357 L45.3193359,26.8586357 C46.0615234,26.8586357 46.4960938,26.433831 46.4960938,25.7355888 C46.4960938,25.0519951 46.0371094,24.612542 45.3046875,24.612542 L44.0498047,24.612542 Z M44.0498047,27.9279717 L44.0498047,30.5060967 L42.5751953,30.5060967 L42.5751953,23.4601982 L45.4609375,23.4601982 C47.0820312,23.4601982 48.0097656,24.3146904 48.0097656,25.706292 C48.0097656,26.6096123 47.5410156,27.3908623 46.7304688,27.7082451 L48.2148438,30.5060967 L46.5449219,30.5060967 L45.2314453,27.9279717 L44.0498047,27.9279717 Z M48.9765625,23.4601982 L51.6669922,23.4601982 C53.78125,23.4601982 55.0263672,24.7199638 55.0263672,26.956292 C55.0263672,29.1926201 53.78125,30.5060967 51.6669922,30.5060967 L48.9765625,30.5060967 L48.9765625,23.4601982 Z M50.4511719,24.6760185 L50.4511719,29.2853935 L51.4912109,29.2853935 C52.8095703,29.2853935 53.5224609,28.4846123 53.5224609,26.9611748 C53.5224609,25.4865654 52.7900391,24.6760185 51.4912109,24.6760185 L50.4511719,24.6760185 Z" transform="rotate(-45 26.513 26.983)"/>
  </g>
</svg>
