<svg xmlns="http://www.w3.org/2000/svg" xmlns:xlink="http://www.w3.org/1999/xlink" width="749" height="530" viewBox="0 0 749 530">
  <defs>
    <linearGradient id="path-right-a" x1="69.844%" x2="26.662%" y1="-47.687%" y2="116.345%">
      <stop offset="0%" stop-color="#5C33DC"/>
      <stop offset="41.613%" stop-color="#241D44"/>
      <stop offset="84.216%" stop-color="#241D44"/>
      <stop offset="100%" stop-color="#441D44"/>
    </linearGradient>
    <path id="path-right-b" d="M691,531.014344 C742.747499,441.474585 799.138938,352.01845 971.938367,289.930118 C1259.93837,186.449223 1277.03308,99.0910665 1309.34043,6.67349709e-13 C1309.05733,-2.23412641e-14 1768.23635,0 1768.23635,0 C1768.23627,85.584714 1472.7919,220.34637 1400.93837,318.710678 C1355.07179,381.5 1355.07179,448 1370.74388,531.014344 C1370.71066,531.014344 691.438367,532.856996 691,531.014344 Z"/>
    <filter id="path-right-c" width="109.6%" height="119.4%" x="-4.8%" y="-9.7%" filterUnits="objectBoundingBox">
      <feGaussianBlur in="SourceAlpha" result="shadowBlurInner1" stdDeviation="46.5"/>
      <feOffset dy="10" in="shadowBlurInner1" result="shadowOffsetInner1"/>
      <feComposite in="shadowOffsetInner1" in2="SourceAlpha" k2="-1" k3="1" operator="arithmetic" result="shadowInnerInner1"/>
      <feColorMatrix in="shadowInnerInner1" values="0 0 0 0 0   0 0 0 0 0   0 0 0 0 0  0 0 0 0.515879755 0"/>
    </filter>
  </defs>
  <g fill="none" opacity=".8" transform="translate(-691)">
    <use fill="url(#path-right-a)" xlink:href="#path-right-b"/>
    <use fill="#000" filter="url(#path-right-c)" xlink:href="#path-right-b"/>
    <path stroke="#241D44" stroke-linejoin="square" stroke-width="3" d="M693.496593,529.694109 C693.49667,529.693976 693.496747,529.693843 693.496824,529.69371 C693.927292,529.707658 694.103845,529.708904 694.120558,529.714345 C693.900613,529.707653 693.692612,529.700907 693.496593,529.694109 Z M1310.42949,1.5 C1310.54262,1.15219871 1310.65482,0.807653618 1310.76655,0.464966517 L1311.4072,-1.5 L1309.34031,-1.5 L1309.34035,1.5 L1310.42949,1.5 Z M1766.70589,1.5 L1768.23635,1.5 L1766.73635,-1.3348785e-06 C1766.73635,0.497570708 1766.72607,0.997564954 1766.70553,1.5 Z M1368.93749,529.521455 C1369.04732,530.110136 1369.15813,530.700516 1369.26991,531.292611 L1370.74388,531.014344 L1370.74388,529.515492 C1370.49907,529.516648 1369.88722,529.518661 1368.93749,529.521455 Z M1370.74388,529.515492 L1370.74388,529.514344 C1370.9071,529.514344 1370.90436,529.514734 1370.74388,529.515492 Z M693.091795,529.679342 C693.076324,529.678748 693.060943,529.678152 693.045653,529.677557 C693.061526,529.678175 693.077194,529.67878 693.092659,529.679373 Z M693.419324,529.827567 C692.914783,529.942225 692.342613,530.176806 692.459274,530.667183 L692.298713,531.764907 C692.675038,531.113745 693.048547,530.468007 693.419324,529.827567 Z"/>
  </g>
</svg>
