<svg xmlns="http://www.w3.org/2000/svg" xmlns:xlink="http://www.w3.org/1999/xlink" width="326" height="530" viewBox="0 0 326 530">
  <defs>
    <linearGradient id="path-left-a" x1="69.844%" x2="26.662%" y1="-47.687%" y2="116.345%">
      <stop offset="0%" stop-color="#5C33DC"/>
      <stop offset="41.613%" stop-color="#241D44"/>
      <stop offset="84.216%" stop-color="#241D44"/>
      <stop offset="100%" stop-color="#441D44"/>
    </linearGradient>
    <path id="path-left-b" d="M-607.877033,404.574246 C-572.958316,382.505449 -531.699272,363.924127 -480.70088,345.611796 C-164.337383,232.013057 -23.1816906,131.089258 12.3074339,22.309563 C11.9964499,22.309563 388.071805,121.616705 387.72715,122.902973 C287.287628,205.365599 111.6513,301.697943 56.4579749,377.206375 C13.3233648,436.217618 7.11724178,498.214505 17.0269018,572.016751 C17.2222795,571.287591 -608.732058,404.345143 -607.877033,404.574246 Z"/>
    <filter id="path-left-c" width="110.3%" height="118.7%" x="-5.2%" y="-9.4%" filterUnits="objectBoundingBox">
      <feGaussianBlur in="SourceAlpha" result="shadowBlurInner1" stdDeviation="46.5"/>
      <feOffset dy="10" in="shadowBlurInner1" result="shadowOffsetInner1"/>
      <feComposite in="shadowOffsetInner1" in2="SourceAlpha" k2="-1" k3="1" operator="arithmetic" result="shadowInnerInner1"/>
      <feColorMatrix in="shadowInnerInner1" values="0 0 0 0 0   0 0 0 0 0   0 0 0 0 0  0 0 0 0.515879755 0"/>
    </filter>
  </defs>
  <g fill="none" opacity=".8" transform="rotate(-15 -110.075 297.163)">
    <use fill="url(#path-left-a)" xlink:href="#path-left-b"/>
    <use fill="#000" filter="url(#path-left-c)" xlink:href="#path-left-b"/>
    <path stroke="#241D44" stroke-linejoin="square" stroke-width="3" d="M384.684,123.45581 C385.31951,123.646225 385.836732,123.805645 386.233505,123.933424 C386.557202,124.037669 386.794904,124.119053 386.936586,124.173412 C385.303671,123.546912 385.91738,123.861573 386.278261,122.514744 L387.72715,122.902973 L386.775326,121.74365 C386.077421,122.316642 385.380478,122.887239 384.684,123.45581 Z M-604.155913,404.014172 C-604.751456,403.855334 -605.293061,403.710886 -605.772542,403.583012 C-606.570285,403.370262 -606.570285,403.370262 -607.076325,403.235319 C-607.273759,403.182673 -607.273759,403.182673 -607.396511,403.149947 C-607.443782,403.137345 -607.443782,403.137345 -607.472247,403.12976 L-607.489242,403.125234 L-607.495124,403.123673 L-607.498071,403.122899 L-608.280269,406.019038 L-608.265261,406.023135 L-607.630855,406.193124 L-607.075657,405.842236 C-606.108025,405.230687 -605.134825,404.621357 -604.155917,404.01417 Z M12.7472991,20.8759394 C12.74678,20.8757903 12.7462445,20.8756381 12.7456465,20.8754681 C12.7460584,20.875588 12.7463855,20.8756832 12.7468528,20.8758171 Z"/>
  </g>
</svg>
