<svg xmlns="http://www.w3.org/2000/svg" width="221" height="140" viewBox="0 0 221 140">
  <defs>
    <linearGradient id="3-minutes-a" x1="10.511%" x2="102.064%" y1="34.964%" y2="66.927%">
      <stop offset="0%" stop-color="#FFC737"/>
      <stop offset="100%" stop-color="#FFB700"/>
    </linearGradient>
    <linearGradient id="3-minutes-b" x1="-23.334%" x2="62.012%" y1="-97.62%" y2="117.047%">
      <stop offset="0%" stop-color="#FFF0BB"/>
      <stop offset="100%" stop-color="#FFDD85"/>
    </linearGradient>
    <linearGradient id="3-minutes-c" x1="-9.413%" x2="88.251%" y1="47.212%" y2="50.621%">
      <stop offset="0%" stop-color="#FFF0BB"/>
      <stop offset="100%" stop-color="#FFDD85"/>
    </linearGradient>
  </defs>
  <g fill="none" fill-rule="evenodd" transform="translate(-.978)">
    <rect width="221.978" height="140" fill="#FFB700" fill-rule="nonzero"/>
    <path fill="url(#3-minutes-a)" d="M0.977876106,43 C25.5534591,33.6666667 50.0325319,34 74.4150943,44 C110.988938,59 121.859818,85.4545455 163.918847,93.7272727 C191.9582,99.2424242 211.311209,96.8181818 221.977876,86.4545455 L221.977876,140.5 L0.977876106,140.5 L0.977876106,43 Z"/>
    <g transform="translate(29 23)">
      <path fill="#FFDD85" fill-rule="nonzero" d="M18.922956,68.1818182 L34.0613208,68.1818182 L34.0613208,72 L18.922956,72 L18.922956,68.1818182 Z M0,68.1818182 L15.1383648,68.1818182 L15.1383648,72 L0,72 L0,68.1818182 Z M18.922956,60.5454545 L34.0613208,60.5454545 L34.0613208,64.3636364 L18.922956,64.3636364 L18.922956,60.5454545 Z M0,60.5454545 L15.1383648,60.5454545 L15.1383648,64.3636364 L0,64.3636364 L0,60.5454545 Z M18.922956,52.9090909 L34.0613208,52.9090909 L34.0613208,56.7272727 L18.922956,56.7272727 L18.922956,52.9090909 Z M18.922956,45.2727273 L34.0613208,45.2727273 L34.0613208,49.0909091 L18.922956,49.0909091 L18.922956,45.2727273 Z M18.922956,37.6363636 L34.0613208,37.6363636 L34.0613208,41.4545455 L18.922956,41.4545455 L18.922956,37.6363636 Z M18.922956,30 L34.0613208,30 L34.0613208,33.8181818 L18.922956,33.8181818 L18.922956,30 Z M37.8459119,68.1818182 L52.9842767,68.1818182 L52.9842767,72 L37.8459119,72 L37.8459119,68.1818182 Z M37.8459119,60.5454545 L52.9842767,60.5454545 L52.9842767,64.3636364 L37.8459119,64.3636364 L37.8459119,60.5454545 Z M37.8459119,52.9090909 L52.9842767,52.9090909 L52.9842767,56.7272727 L37.8459119,56.7272727 L37.8459119,52.9090909 Z M37.8459119,45.2727273 L52.9842767,45.2727273 L52.9842767,49.0909091 L37.8459119,49.0909091 L37.8459119,45.2727273 Z M37.8459119,37.6363636 L52.9842767,37.6363636 L52.9842767,41.4545455 L37.8459119,41.4545455 L37.8459119,37.6363636 Z M56.7688679,68.1818182 L71.9072327,68.1818182 L71.9072327,72 L56.7688679,72 L56.7688679,68.1818182 Z M75.6918239,68.1818182 L90.8301887,68.1818182 L90.8301887,72 L75.6918239,72 L75.6918239,68.1818182 Z M56.7688679,60.5454545 L71.9072327,60.5454545 L71.9072327,64.3636364 L56.7688679,64.3636364 L56.7688679,60.5454545 Z M75.6918239,60.5454545 L90.8301887,60.5454545 L90.8301887,64.3636364 L75.6918239,64.3636364 L75.6918239,60.5454545 Z M56.7688679,52.9090909 L71.9072327,52.9090909 L71.9072327,56.7272727 L56.7688679,56.7272727 L56.7688679,52.9090909 Z M75.6918239,52.9090909 L90.8301887,52.9090909 L90.8301887,56.7272727 L75.6918239,56.7272727 L75.6918239,52.9090909 Z M56.7688679,45.2727273 L71.9072327,45.2727273 L71.9072327,49.0909091 L56.7688679,49.0909091 L56.7688679,45.2727273 Z M75.6918239,45.2727273 L90.8301887,45.2727273 L90.8301887,49.0909091 L75.6918239,49.0909091 L75.6918239,45.2727273 Z M75.6918239,37.6363636 L90.8301887,37.6363636 L90.8301887,41.4545455 L75.6918239,41.4545455 L75.6918239,37.6363636 Z M147.042701,68.1818182 L147.042701,72 L131.876862,72 L131.876862,68.1818182 L147.042701,68.1818182 Z M166,68.1818182 L166,72 L150.834161,72 L150.834161,68.1818182 L166,68.1818182 Z M147.042701,60.5454545 L147.042701,64.3636364 L131.876862,64.3636364 L131.876862,60.5454545 L147.042701,60.5454545 Z M166,60.5454545 L166,64.3636364 L150.834161,64.3636364 L150.834161,60.5454545 L166,60.5454545 Z M147.042701,52.9090909 L147.042701,56.7272727 L131.876862,56.7272727 L131.876862,52.9090909 L147.042701,52.9090909 Z M166,52.9090909 L166,56.7272727 L150.834161,56.7272727 L150.834161,52.9090909 L166,52.9090909 Z M147.042701,45.2727273 L147.042701,49.0909091 L131.876862,49.0909091 L131.876862,45.2727273 L147.042701,45.2727273 Z M166,45.2727273 L166,49.0909091 L150.834161,49.0909091 L150.834161,45.2727273 L166,45.2727273 Z M147.042701,37.6363636 L147.042701,41.4545455 L131.876862,41.4545455 L131.876862,37.6363636 L147.042701,37.6363636 Z M147.042701,30 L147.042701,33.8181818 L131.876862,33.8181818 L131.876862,30 L147.042701,30 Z M128.085402,68.1818182 L128.085402,72 L112.919563,72 L112.919563,68.1818182 L128.085402,68.1818182 Z M128.085402,60.5454545 L128.085402,64.3636364 L112.919563,64.3636364 L112.919563,60.5454545 L128.085402,60.5454545 Z M128.085402,52.9090909 L128.085402,56.7272727 L112.919563,56.7272727 L112.919563,52.9090909 L128.085402,52.9090909 Z M109.128103,68.1818182 L109.128103,72 L93.9622642,72 L93.9622642,68.1818182 L109.128103,68.1818182 Z M109.128103,60.5454545 L109.128103,64.3636364 L93.9622642,64.3636364 L93.9622642,60.5454545 L109.128103,60.5454545 Z M109.128103,52.9090909 L109.128103,56.7272727 L93.9622642,56.7272727 L93.9622642,52.9090909 L109.128103,52.9090909 Z M109.128103,45.2727273 L109.128103,49.0909091 L93.9622642,49.0909091 L93.9622642,45.2727273 L109.128103,45.2727273 Z"/>
      <path fill="url(#3-minutes-b)" d="M28.9032258,8.05177969e-06 L3.09677419,8.05177969e-06 C1.38647303,8.05177969e-06 1.71905501e-16,1.53503113 0,3.42857806 L0,20.5714281 C1.71905501e-16,22.4649751 1.38647303,23.9999981 3.09677419,23.9999981 L7.22580645,23.9999981 L7.22580645,31.4285665 C7.22550778,31.6472066 7.33791998,31.8468691 7.51535484,31.942852 C7.58587772,31.9810313 7.66343469,32.0005909 7.74193548,31.9999948 C7.856742,31.9999448 7.96825637,31.9575172 8.05883871,31.8794234 L17.2092903,23.9999981 L28.9032258,23.9999981 C30.613527,23.9999981 32,22.4649751 32,20.5714281 L32,3.42857806 C32,1.53503113 30.613527,8.05177969e-06 28.9032258,8.05177969e-06 Z" transform="translate(93.978)"/>
      <rect width="19" height="4" x="98.978" y="5" fill="#FFB700" rx="2"/>
      <rect width="11" height="4" x="98.978" y="13" fill="#FFB700" rx="2"/>
    </g>
    <g transform="translate(29 101)">
      <rect width="166" height="12" fill="url(#3-minutes-c)" rx="2"/>
      <path fill="#FFB700" fill-rule="nonzero" d="M7.09007708,3.11844704 C6.61290054,2.80968233 5.97787611,3.14087134 5.97787611,3.69287656 L5.97787611,8.3071248 C5.97787611,8.85912119 6.61380875,9.19031903 7.09007708,8.88155432 L10.6545967,6.56316948 C11.0856359,6.27595472 11.0856359,5.67997525 10.6545967,5.39276049 L7.09007708,3.11844704 Z"/>
      <rect width="144" height="4" x="18" y="4" fill="#FFB700" rx="2"/>
      <rect width="55" height="4" x="18" y="4" fill="#E6A500" rx="2"/>
    </g>
  </g>
</svg>
