<svg xmlns="http://www.w3.org/2000/svg" width="222" height="140" viewBox="0 0 222 140">
  <defs>
    <linearGradient id="talks-a" x1="50%" x2="50%" y1="0%" y2="100%">
      <stop offset="2.529%" stop-color="#3176D0"/>
      <stop offset="100%" stop-color="#418FF3"/>
    </linearGradient>
    <linearGradient id="talks-b" x1="82.793%" x2="1.802%" y1="13.107%" y2="111.179%">
      <stop offset="0%" stop-color="#418FF3"/>
      <stop offset="100%" stop-color="#327CDC"/>
    </linearGradient>
    <linearGradient id="talks-c" x1="50%" x2="50%" y1="0%" y2="100%">
      <stop offset="0%" stop-color="#327CDC"/>
      <stop offset="100%" stop-color="#327CDC"/>
    </linearGradient>
    <linearGradient id="talks-d" x1="50%" x2="50%" y1="19.741%" y2="100%">
      <stop offset="0%" stop-color="#327CDC"/>
      <stop offset="100%" stop-color="#418FF3"/>
    </linearGradient>
    <linearGradient id="talks-e" x1="50%" x2="50%" y1="100%" y2="0%">
      <stop offset="0%" stop-color="#418FF3"/>
      <stop offset="100%" stop-color="#327CDC"/>
    </linearGradient>
  </defs>
  <g fill="none" fill-rule="evenodd" transform="translate(-619 -3971)">
    <rect width="1440" height="7696" fill="#FAFAFA"/>
    <g transform="translate(606.286 3971)">
      <rect width="222" height="140" x="12.714" fill="#327CDC" fill-rule="nonzero"/>
      <g transform="translate(0 5)">
        <rect width="157.454" height="92" x="45" y="8" fill="#418FF3" fill-rule="nonzero" rx="3"/>
        <path fill="url(#talks-a)" d="M52.8105727,100 C73.8531426,78.8333333 100.747416,65.1666667 133.493392,59 C166.239368,52.8333333 189.221747,40.8333333 202.440529,23 L202.440529,97 C202.440529,98.6568542 201.097383,100 199.440529,100 L52.8105727,100 Z"/>
        <path fill="url(#talks-b)" stroke="url(#talks-c)" stroke-width="2" d="M69.7136564,45 L117.713656,45 C119.370511,45 120.713656,46.3431458 120.713656,48 L120.713656,100 L66.7136564,100 L66.7136564,48 C66.7136564,46.3431458 68.0568021,45 69.7136564,45 Z"/>
        <rect width="27" height="4" x="74.714" y="64" fill="#65A9FF" rx="2"/>
        <rect width="16" height="4" x="74.714" y="73" fill="#65A9FF" rx="2"/>
        <path fill="#327CDC" d="M69.7136564,46 L117.713656,46 C118.818226,46 119.713656,46.8954305 119.713656,48 L119.713656,54 L67.7136564,54 L67.7136564,48 C67.7136564,46.8954305 68.6090869,46 69.7136564,46 Z"/>
        <rect width="52" height="2" x="67.714" y="54" fill="#327CDC"/>
        <circle cx="72" cy="50" r="1" fill="#65A8FF"/>
        <circle cx="75.714" cy="50" r="1" fill="#65A8FF"/>
        <circle cx="79.714" cy="50" r="1" fill="#65A8FF"/>
        <path fill="#327CDC" d="M4.88986784,0 C6.50729368,0 7.82378855,1.34571455 7.82378855,3 C7.82378855,4.65428545 6.50729368,6 4.88986784,6 C3.27243917,6 1.95594714,4.65428545 1.95594714,3 C1.95594714,1.34571455 3.27243917,0 4.88986784,0 Z M2.93424339,7 L6.8454923,7 C8.4709428,7 9.77973568,8.3438902 9.77973568,10.0016651 L9.77973568,15 C9.77973568,15.2294998 9.62717166,15.4295006 9.40908399,15.4850006 L7.79298253,15.8979988 L7.33284596,22.5415001 C7.31181894,22.8010006 7.10057704,23 6.84581498,23 L2.9339207,23 C2.67915864,23 2.46791674,22.8010006 2.44688977,22.5415001 L1.98675321,15.8979988 L0.370652178,15.4850006 C0.152564023,15.4295006 1.13686838e-13,15.2294998 1.13686838e-13,15 L1.13686838e-13,10.0016651 C1.13686838e-13,8.3390198 1.31370524,7 2.93424339,7 Z" transform="translate(159.41 79)"/>
        <path fill="#418FF3" fill-rule="nonzero" d="M46.3338031,102 L201.09351,102 C201.950319,102 202.766243,102.366355 203.335539,103.006686 L222,124 L25.4273128,124 L44.0917733,103.006686 C44.6610702,102.366355 45.4769937,102 46.3338031,102 Z"/>
        <path stroke="#327CDC" stroke-linecap="square" d="M35.6960352,112.954545 L211.794311,112.954545"/>
        <path fill="url(#talks-d)" fill-rule="nonzero" d="M204.396476 100.86245L204.396476 29.33289C204.396476 28.4842901 204.747953 27.675387 205.36383 27.1065821L234.713656 1.8189894e-12 234.713656 137 205.134098 102.851556C204.658859 102.302911 204.396476 101.595357 204.396476 100.86245zM43.030837 100.86245C43.030837 101.595357 42.7684539 102.302911 42.2932147 102.851556L12.7136564 137 12.7136564-1.8189894e-12 42.063483 27.1065821C42.6793602 27.675387 43.030837 28.4842901 43.030837 29.33289L43.030837 100.86245z"/>
        <path fill="#418FF3" fill-rule="nonzero" d="M26.0009527,125 L221.42636,125 C222.288387,125 223.10876,125.370814 223.678304,126.017893 L247.427313,153 L0,153 L23.749009,126.017893 C24.3185525,125.370814 25.1389254,125 26.0009527,125 Z"/>
        <polygon fill="url(#talks-e)" fill-opacity=".8" fill-rule="nonzero" points="43.031 100 202.441 100 234.117 135 15.648 135"/>
        <path stroke="#327CDC" stroke-linecap="square" d="M123.745173,102 L123.745173,137"/>
        <path stroke="#327CDC" stroke-linecap="square" d="M0.52050351,0 L13.2341599,35" transform="translate(162.344 102)"/>
        <path stroke="#327CDC" stroke-linecap="square" d="M0.52050351,0 L13.2341599,35" transform="matrix(-1 0 0 1 85.084 102)"/>
      </g>
    </g>
  </g>
</svg>
