<svg xmlns="http://www.w3.org/2000/svg" xmlns:xlink="http://www.w3.org/1999/xlink" width="235" height="300" viewBox="0 0 235 300">
  <defs>
    <ellipse id="workshops-hero-a" cx="105.51" cy="105.426" rx="105.51" ry="105.426"/>
    <linearGradient id="workshops-hero-b" x1="49.992%" x2="49.992%" y1="0%" y2="100%">
      <stop offset="0%" stop-color="#77708A"/>
      <stop offset="24%" stop-color="#6B6476" stop-opacity=".71"/>
      <stop offset="59%" stop-color="#5A535B" stop-opacity=".33"/>
      <stop offset="85%" stop-color="#50494A" stop-opacity=".09"/>
      <stop offset="100%" stop-color="#4C4544" stop-opacity="0"/>
    </linearGradient>
    <linearGradient id="workshops-hero-c" x1="50%" x2="50%" y1="26.351%" y2="94.075%">
      <stop offset="0%" stop-color="#2F00AE"/>
      <stop offset="1%" stop-color="#3001AF" stop-opacity=".99"/>
      <stop offset="37%" stop-color="#4515C4" stop-opacity=".57"/>
      <stop offset="66%" stop-color="#5424D3" stop-opacity=".26"/>
      <stop offset="88%" stop-color="#5D2DDC" stop-opacity=".07"/>
      <stop offset="100%" stop-color="#6130E0" stop-opacity="0"/>
    </linearGradient>
    <linearGradient id="workshops-hero-d" x1="100%" x2="0%" y1="15.616%" y2="84.384%">
      <stop offset="0%" stop-color="#B5A2FC"/>
      <stop offset="100%" stop-color="#7E69F7"/>
    </linearGradient>
  </defs>
  <g fill="none" fill-rule="evenodd">
    <g opacity=".7" transform="translate(9.991)">
      <use fill="#4817C7" fill-rule="nonzero" xlink:href="#workshops-hero-a"/>
      <g opacity=".3">
        <path fill="#000" fill-rule="nonzero" d="M1.67857143,109.371221 C1.67857143,51.1474587 48.9183673,3.94547855 107.188776,3.94547855 C149.908418,3.94547855 186.697109,29.3155446 203.290986,65.7952475 C187.61233,27.2110231 149.736565,0 105.510204,0 C47.2238095,0 -2.71050543e-20,47.2019802 -2.71050543e-20,105.425743 C-0.024542728,120.455512 3.1796162,135.315484 9.3960034,149.001716 C4.28483593,136.413933 1.66402397,122.955561 1.67857143,109.371221 Z" opacity=".4" transform="translate(.4)"/>
      </g>
      <path fill="url(#workshops-hero-b)" fill-rule="nonzero" d="M105.510204,0.874554455 C155.276404,0.912385851 198.13391,35.9601057 208.011311,84.6972122 C217.888712,133.434319 192.05417,182.381367 146.223554,201.762508 C92.9756026,224.238693 31.5744637,199.327802 9.08027211,146.122475 C-13.4139194,92.9171487 11.5169291,31.5651617 64.764881,9.0889769 C77.6549091,3.63857399 91.513546,0.844616557 105.510204,0.874554455 L105.510204,0.874554455 Z M105.510204,0 C47.2238095,0 0,47.2019802 0,105.425743 C0,163.649505 47.2397959,210.851485 105.510204,210.851485 C163.780612,210.851485 211.020408,163.649505 211.020408,105.425743 C211.020408,47.2019802 163.768622,0 105.510204,0 Z" opacity=".5" transform="translate(.4)"/>
    </g>
    <polygon fill="url(#workshops-hero-c)" fill-rule="nonzero" points="213.658 246.488 224.849 188.488 11.031 188.488 19.423 246.488"/>
    <path fill="#0F0767" fill-rule="nonzero" d="M45.7011054,84.0410891 L186.721088,84.0410891 C188.765012,84.0410891 190.421939,85.6966899 190.421939,87.7389769 L190.421939,179.26769 L42.0002551,179.26769 L42.0002551,87.7389769 C42.0002551,85.6966899 43.6571822,84.0410891 45.7011054,84.0410891 Z"/>
    <path fill="#7B5DF0" fill-rule="nonzero" d="M186.721088,84.0410891 C188.765012,84.0410891 190.421939,85.6966899 190.421939,87.7389769 L190.421939,179.26769 L42.0002551,179.26769 L42.0002551,87.7389769 C42.0002551,85.6966899 43.6571822,84.0410891 45.7011054,84.0410891 L186.721088,84.0410891 L186.721088,84.0410891 Z M186.721088,83.2424092 L45.7011054,83.2424092 C43.2166434,83.244611 41.2031389,85.2565037 41.2009354,87.7389769 L41.2009354,180.06637 L191.225255,180.06637 L191.225255,87.7389769 C191.223052,85.2565037 189.209547,83.244611 186.725085,83.2424092 L186.721088,83.2424092 Z"/>
    <polygon fill="#7B5DF0" fill-rule="nonzero" points="234.78 194.507 224.661 188.688 11.051 188.688 0 194.507"/>
    <path fill="#5726D6" fill-rule="nonzero" d="M0,194.510495 L234.876105,194.510495 L234.876105,197.05429 C234.876106,198.172349 234.43133,199.244557 233.639734,200.03477 C232.848139,200.824982 231.774651,201.268387 230.655697,201.267327 L4.21641156,201.267327 C1.88775176,201.267327 2.85178578e-16,199.381086 0,197.05429 L0,194.510495 L0,194.510495 Z"/>
    <rect width="136.784" height="88.933" x="47.871" y="90.335" fill="#282080" fill-rule="nonzero"/>
    <path fill="#372F8F" fill-rule="nonzero" d="M26.6972789,179.26769 L205.904762,179.26769 C206.847262,179.26769 207.61131,180.031126 207.61131,180.972871 L207.61131,187.546007 L24.8148426,187.546007 L24.814881,181.156568 C24.8116822,180.656018 25.0087211,180.174929 25.3622026,179.820231 C25.7156841,179.465532 26.1963192,179.266615 26.6972789,179.26769 L26.6972789,179.26769 Z"/>
    <path fill="#0F0767" fill-rule="nonzero" d="M207.61131,187.522046 L24.814881,187.522046 C24.814881,187.522046 28.0481293,189.17132 30.9616497,190.916436 L199.298384,191.595314 C201.404592,191.599307 207.61131,187.522046 207.61131,187.522046 Z"/>
    <path fill="#322A8A" fill-rule="nonzero" d="M98.7719388,179.26769 L133.658248,179.26769 L133.658248,180.609472 C133.658248,182.153317 132.405712,183.404851 130.860629,183.404851 L101.569558,183.404851 C100.024475,183.404851 98.7719388,182.153317 98.7719388,180.609472 L98.7719388,179.26769 L98.7719388,179.26769 Z"/>
    <rect width="82" height="68" x="57.564" y="101" fill="url(#workshops-hero-d)" rx="3.524"/>
    <path fill="#0F0767" fill-rule="nonzero" d="M131.943707,179.371518 C131.484099,182.282706 129.605697,181.69967 127.847194,181.69967 L104.578997,181.69967 C102.820493,181.69967 100.770238,182.282706 100.310629,179.371518 L98.640051,179.371518 L98.640051,179.910627 C98.640051,182.162904 100.598384,183.444785 102.852466,183.444785 L129.573724,183.444785 C130.65988,183.457771 131.705346,183.032375 132.473429,182.264908 C133.241511,181.49744 133.667248,180.45281 133.654541,179.367525 L131.943707,179.371518 Z"/>
    <path fill="#00004E" fill-rule="nonzero" d="M190.817602,192.17835 C194.038861,192.17835 198.810799,192.429934 201.840221,190.716766 L30.2822279,190.517096 C33.2996599,192.230264 38.3873299,192.17835 41.6085884,192.17835 L190.817602,192.17835 Z" opacity=".9"/>
    <rect width="148.422" height="1.825" x="42" y="177.443" fill="#05005D" fill-rule="nonzero" opacity=".7"/>
    <g fill="#FFF" fill-rule="nonzero" transform="translate(79 117)">
      <path d="M33.6861136,11.9123053 C32.9910529,11.6563381 32.2542887,11.400371 31.489722,11.172455 C31.6808636,10.4010471 31.8372523,9.63314567 31.9658385,8.89329539 C32.6330967,4.65756489 31.9032831,1.67011259 29.8806566,0.516507176 C29.2603061,0.162539084 28.5566204,-0.0155622383 27.844129,0.00106646136 C25.6164596,0.00106646136 22.7840875,1.67011259 19.923913,4.46120652 C17.0602632,1.65608699 14.2278912,0.00106646136 12.0036971,0.00106646136 C11.2912057,-0.0155622383 10.58752,0.162539084 9.96716948,0.516507176 C7.93064182,1.70517658 7.18692694,4.68912249 7.88198758,8.89329539 C8.01057379,9.63314567 8.16696244,10.4010471 8.35810411,11.172455 C7.61371778,11.3803601 6.88059057,11.6273126 6.16171251,11.9123053 C2.16163857,13.4516146 -4.97379915e-14,15.5799991 -4.97379915e-14,17.9468187 C-4.97379915e-14,20.3136383 2.1963916,22.4420228 6.14086069,23.9813321 C6.83592133,24.2372993 7.5726856,24.4932664 8.33725229,24.7211824 C8.14611062,25.4925902 7.98972198,26.2604917 7.86113576,27.000342 C7.19387755,31.2360725 7.92369122,34.2235248 9.94631766,35.3771302 C10.567011,35.7298763 11.270676,35.9067609 11.9828453,35.8890645 C14.2417924,35.8890645 17.0741644,34.2200184 19.9030612,31.4289245 C22.766711,34.234044 25.5990831,35.8890645 27.8232771,35.8890645 C28.5354465,35.9067609 29.2391115,35.7298763 29.8598048,35.3771302 C31.8963324,34.1884608 32.6400473,31.2045149 31.9449867,27.000342 C31.8164005,26.2604917 31.6600118,25.4925902 31.4688702,24.7211824 C32.2132731,24.5133322 32.9464031,24.2663788 33.6652618,23.9813321 C37.6410086,22.4420228 39.8061224,20.3206511 39.8061224,17.9468187 C39.8061224,15.5729863 37.6410086,13.4516146 33.6652618,11.9123053 M28.956226,2.12243811 C30.2594647,2.89384598 30.6938776,5.27819759 30.1656315,8.63732823 C30.0561992,9.34640051 29.9076894,10.0487692 29.7207927,10.7411679 C27.9984642,10.3613918 26.251917,10.1036268 24.4939367,9.96976001 C23.47167,8.51576464 22.367,7.12257167 21.1854481,5.7971447 C23.5382283,3.45486989 25.9257616,1.84893896 27.8649808,1.84893896 C28.2546707,1.84119195 28.6391044,1.94058453 28.9770778,2.13646371 M25.414892,21.1551742 C24.841467,22.1825492 24.1742088,23.2099242 23.4756729,24.2372993 C22.2975451,24.331972 21.1228926,24.367036 19.9134871,24.367036 C18.7040816,24.367036 17.4807749,24.3354784 16.3513014,24.2372993 C15.6562408,23.211093 15.0202603,22.183718 14.44336,21.1551742 C13.8386572,20.1032543 13.2652322,19.0057513 12.7578379,17.9468187 C13.2652322,16.8948989 13.8386572,15.7973959 14.44336,14.7384632 C15.0480627,13.6795306 15.6840432,12.6837132 16.3825791,11.6563381 C17.5607069,11.5616654 18.7353594,11.5266014 19.9447649,11.5266014 C21.1541704,11.5266014 22.3774771,11.558159 23.5069506,11.6563381 C24.2020112,12.6825444 24.8379917,13.7099194 25.414892,14.7384632 C26.0195948,15.7903831 26.5930198,16.8878861 27.1004141,17.9468187 C26.5582668,18.9987385 26.0195948,20.0506583 25.414892,21.1551742 M28.0561224,20.1032543 C28.532239,21.2253022 28.9145223,22.3192988 29.265528,23.409789 C28.1847087,23.6657561 27.0378586,23.8586081 25.8284531,24.0199025 C26.2107365,23.409789 26.6242975,22.7681179 26.9753032,22.0948892 C27.3263088,21.4216605 27.7085921,20.7484318 28.0561224,20.1032543 M19.9134871,28.7956185 C19.1489204,27.9610954 18.4191068,27.0634572 17.7170955,26.1307549 C18.4503845,26.1623125 19.1801982,26.1938701 19.9134871,26.1938701 C20.6467761,26.1938701 21.3765898,26.1623125 22.1098787,26.1307549 C21.4148181,27.0599508 20.6780538,27.9610954 19.9134871,28.7956185 M14.0054718,23.9813321 C12.7960663,23.8200377 11.6526915,23.6306922 10.5683969,23.3712186 C10.9159272,22.3192988 11.3016859,21.1867318 11.7778024,20.0646839 C12.1253327,20.706355 12.4728631,21.3795837 12.8586217,22.0212548 C13.2409051,22.7225347 13.6231884,23.3361546 14.0054718,23.9778257 M11.7778024,15.7938895 C11.3016859,14.6718416 10.9194025,13.577845 10.5683969,12.4873548 C11.6492162,12.2313876 12.7960663,12.0385357 14.0054718,11.8772413 C13.6231884,12.4873548 13.2096273,13.1290259 12.8586217,13.8022546 C12.5076161,14.4754833 12.1253327,15.1522184 11.7778024,15.7938895 M19.9204377,7.09451249 C20.6850044,7.92903555 21.4148181,8.8266738 22.1168293,9.75937605 C21.3835404,9.72781845 20.6537267,9.69626086 19.9204377,9.69626086 C19.1871488,9.69626086 18.4573351,9.72781845 17.7240461,9.75937605 C18.4191068,8.8301802 19.155871,7.92903555 19.9204377,7.09451249 M26.9753032,13.8267994 L25.8284531,11.9017861 C27.0378586,12.0630805 28.1812334,12.252426 29.265528,12.5118996 C28.9179976,13.5638194 28.532239,14.69288 28.0561224,15.8184342 C27.7085921,15.1452056 27.3610618,14.4684705 26.9753032,13.8267994 M9.63701568,8.63732823 C9.09486838,5.26767839 9.54318249,2.89033958 10.8464212,2.12243811 C11.1843946,1.92655894 11.5688283,1.82716635 11.9585182,1.83491336 C13.8664596,1.83491336 16.2539929,3.4092867 18.6380509,5.78311911 C17.4489972,7.10210581 16.3439547,8.49576853 15.3295623,9.95573442 C13.5656891,10.114793 11.813157,10.3829525 10.0818545,10.7586999 C9.89071281,10.0188496 9.76212659,9.31406332 9.63701568,8.65486023 M1.77935522,17.9643507 C1.77935522,16.4565989 3.59346347,14.850668 6.77336587,13.6619986 C7.43914623,13.3992003 8.11906496,13.174435 8.80989352,12.9887699 C9.35054333,14.6932211 9.98756831,16.3650083 10.717835,17.9959083 C9.97522607,19.6011798 9.33787494,21.2539106 8.80989352,22.9434379 C4.42058563,21.6600957 1.77935522,19.7350824 1.77935522,17.9362995 M10.8464212,33.7606801 C9.54318249,32.9892722 9.10876959,30.6049206 9.63701568,27.24579 C9.74641958,26.5367124 9.89492974,25.8343421 10.0818545,25.1419503 C11.8102864,25.5333112 13.5638423,25.8016274 15.3295623,25.9449158 C16.3518907,27.3988642 17.4565579,28.7920536 18.6380509,30.1175311 C16.2852706,32.4598059 13.8977374,34.0657368 11.9585182,34.0657368 C11.5688486,34.0733072 11.184461,33.9739265 10.8464212,33.7782121 M30.1899586,27.263322 C30.7321059,30.6329718 30.2837918,33.0103106 28.9805531,33.7782121 C28.6425133,33.9739265 28.2581256,34.0733072 27.8684561,34.0657368 C25.9605146,34.0657368 23.5729814,32.4913635 21.1889234,30.1175311 C22.378126,28.7986727 23.4831763,27.4050002 24.497412,25.9449158 C26.2624499,25.7859908 28.0161463,25.5178307 29.7485951,25.1419503 C29.9397368,25.8818006 30.0648477,26.5865869 30.1934339,27.24579 M33.0501331,22.242158 C32.3843032,22.5048171 31.7043923,22.7295799 31.0136054,22.9153867 C30.4729844,21.2109253 29.8359588,19.5391364 29.105664,17.9082483 C29.8493888,16.2938541 30.486753,14.6317187 31.0136054,12.9326675 C35.4029133,14.2160097 38.0441437,16.141023 38.0441437,17.9398059 C38.0441437,19.4475576 36.1987578,21.0534886 33.0501331,22.242158"/>
      <path d="M19.8528542,14.4936296 C21.8566628,14.4936296 23.4810707,16.1325723 23.4810707,18.1543106 C23.4810707,20.1760488 21.8566628,21.8149915 19.8528542,21.8149915 C17.8490455,21.8149915 16.2246377,20.1760488 16.2246377,18.1543106 C16.2246377,16.1325723 17.8490455,14.4936296 19.8528542,14.4936296"/>
    </g>
    <g transform="translate(146.3 100.1)">
      <g fill="#7460DD" stroke="#282080" stroke-width=".9" transform="translate(.9 59.9)">
        <rect width="9.9" height="9.338" x="-.45" y="-.028" rx="4.669"/>
        <rect width="9.9" height="9.338" x="4.05" y="-.028" rx="4.669"/>
        <rect width="9.9" height="9.338" x="8.55" y="-.028" rx="4.669"/>
        <rect width="9.9" height="9.338" x="13.05" y="-.028" rx="4.669"/>
        <rect width="10.9" height="10.181" x="17.55" y="-.45" rx="5.091"/>
      </g>
      <rect width="28" height="52" x=".9" y=".9" fill="#4C43B4" rx="2"/>
      <rect width="18.9" height="1.688" x="5.5" y="6.806" fill="#6A59D8" rx=".844"/>
      <rect width="13.5" height="1.688" x="5.5" y="11.025" fill="#6A59D8" rx=".844"/>
      <rect width="13.5" height="1.688" x="5.5" y="27.9" fill="#6A59D8" rx=".844"/>
      <rect width="16.2" height="1.688" x="5.5" y="15.244" fill="#6A59D8" rx=".844"/>
      <rect width="18.9" height="1.688" x="5.5" y="23.681" fill="#6A59D8" rx=".844"/>
      <rect width="8.1" height="1.688" x="5.5" y="19.462" fill="#6A59D8" rx=".844"/>
    </g>
    <g fill="#8A6CFF" fill-rule="nonzero" transform="translate(96 47)">
      <path d="M.0925771476.351219512C.0925771476.208433699.211320642.0926829268.357798165.0926829268L1.64637198.0926829268C1.790659.0977109164 1.90643501.210568988 1.91159299.351219512L1.91159299 8.00243902 5.47956631 8.00243902C5.62604383 8.00243902 5.74478732 8.1181898 5.74478732 8.26097561L5.74478732 9.3804878C5.74478732 9.52327362 5.62604383 9.63902439 5.47956631 9.63902439L.357798165 9.63902439C.211320642 9.63902439.0925771476 9.52327362.0925771476 9.3804878L.0925771476.351219512zM7.15846539.351219512C7.16362338.210568988 7.27939938.0977109164 7.42368641.0926829268L8.72477064.0926829268C8.86905767.0977109164 8.98483367.210568988 8.98999166.351219512L8.98999166 9.37560976C8.98483367 9.51626028 8.86905767 9.62911835 8.72477064 9.63414634L7.42368641 9.63414634C7.27939938 9.62911835 7.16362338 9.51626028 7.15846539 9.37560976L7.15846539.351219512zM10.2585488.448780488C10.2165489.368891426 10.2229624.272970163 10.2752449.199071255 10.3275273.125172346 10.4172269.085242111 10.5087573.0951219512L11.9349458.0951219512C12.043164.087305335 12.1442153.148378132 12.1851543.246341463L14.8723937 6.1 14.969975 6.1 17.6572143.246341463C17.6981533.148378132 17.7992047.087305335 17.9074229.0951219512L19.3361134.0951219512C19.4276439.085242111 19.5173434.125172346 19.5696259.199071255 19.6219083.272970163 19.6283218.368891426 19.5863219.448780488L15.2477064 9.62926829C15.2067674 9.72723162 15.1057161 9.78830442 14.9974979 9.7804878L14.8573812 9.7804878C14.749163 9.78830442 14.6481116 9.72723162 14.6071726 9.62926829L10.2585488.448780488zM20.8123436.351219512C20.8123436.208433699 20.9310871.0926829268 21.0775646.0926829268L26.7723103.0926829268C26.9187878.0926829268 27.0375313.208433699 27.0375313.351219512L27.0375313 1.46341463C27.0375313 1.60620045 26.9187878 1.72195122 26.7723103 1.72195122L22.6313595 1.72195122 22.6313595 3.95853659 26.0867389 3.95853659C26.231026 3.96356457 26.346802 4.07642265 26.35196 4.21707317L26.35196 5.36585366C26.35196 5.50863947 26.2332165 5.62439024 26.0867389 5.62439024L22.6313595 5.62439024 22.6313595 8.01219512 26.7723103 8.01219512C26.9187878 8.01219512 27.0375313 8.12794589 27.0375313 8.27073171L27.0375313 9.3902439C27.0375313 9.53302972 26.9187878 9.64878049 26.7723103 9.64878049L21.0775646 9.64878049C20.9310871 9.64878049 20.8123436 9.53302972 20.8123436 9.3902439L20.8123436.351219512z" transform="translate(12.215)"/>
      <circle cx="3.636" cy="4.923" r="3.636"/>
    </g>
  </g>
</svg>
